<svg width="21" height="21" viewBox="0 0 21 21" fill="none" xmlns="http://www.w3.org/2000/svg">
<path d="M10.012 0.995C4.49401 0.995 0.0140076 5.475 0.0140076 10.993C0.0140076 16.511 4.49401 20.991 10.012 20.991C15.53 20.991 20.009 16.511 20.009 10.993C20.009 5.475 15.53 0.995 10.012 0.995ZM10.012 2.495C14.702 2.495 18.509 6.303 18.509 10.993C18.509 15.683 14.702 19.491 10.012 19.491C5.32201 19.491 1.51401 15.683 1.51401 10.993C1.51401 6.303 5.32201 2.495 10.012 2.495ZM11.54 7.21C11.54 7.21 13.042 8.715 14.795 10.469C14.941 10.616 15.014 10.808 15.014 11C15.014 11.192 14.941 11.383 14.795 11.53C13.042 13.284 11.541 14.788 11.541 14.788C11.396 14.933 11.205 15.005 11.014 15.005C10.823 15.004 10.631 14.931 10.484 14.784C10.191 14.491 10.189 14.018 10.48 13.727L12.458 11.75H5.76401C5.35001 11.75 5.01401 11.414 5.01401 11C5.01401 10.586 5.35001 10.25 5.76401 10.25H12.458L10.479 8.271C10.19 7.982 10.193 7.509 10.485 7.217C10.632 7.07 10.824 6.996 11.016 6.995C11.206 6.995 11.396 7.066 11.54 7.21Z" fill="#808080"/>
</svg>
